<svg width="16" height="16" viewBox="0 0 30 30" fill="none" xmlns="http://www.w3.org/2000/svg">
<path fill-rule="evenodd" clip-rule="evenodd" d="M15 30C18.9782 30 22.7936 28.4196 25.6066 25.6066C28.4196 22.7936 30 18.9782 30 15C30 11.0218 28.4196 7.20644 25.6066 4.3934C22.7936 1.58035 18.9782 0 15 0C11.0218 0 7.20644 1.58035 4.3934 4.3934C1.58035 7.20644 0 11.0218 0 15C0 18.9782 1.58035 22.7936 4.3934 25.6066C7.20644 28.4196 11.0218 30 15 30ZM16.875 7.5C16.875 7.00272 16.6775 6.52581 16.3258 6.17418C15.9742 5.82254 15.4973 5.625 15 5.625C14.5027 5.625 14.0258 5.82254 13.6742 6.17418C13.3225 6.52581 13.125 7.00272 13.125 7.5V15C13.1251 15.4972 13.3227 15.9741 13.6744 16.3256L18.9769 21.63C19.1511 21.8042 19.3579 21.9424 19.5855 22.0367C19.8131 22.131 20.0571 22.1795 20.3034 22.1795C20.5498 22.1795 20.7938 22.131 21.0214 22.0367C21.249 21.9424 21.4558 21.8042 21.63 21.63C21.8042 21.4558 21.9424 21.249 22.0367 21.0214C22.131 20.7938 22.1795 20.5498 22.1795 20.3034C22.1795 20.0571 22.131 19.8131 22.0367 19.5855C21.9424 19.3579 21.8042 19.1511 21.63 18.9769L16.875 14.2238V7.5Z" fill="#023047"/>
</svg>
