<svg width="18" height="19" viewBox="0 0 18 19" fill="none" xmlns="http://www.w3.org/2000/svg">
<path d="M15.6726 2.34782C15.3351 2.01037 14.8773 1.8208 14.4 1.8208C13.9227 1.8208 13.465 2.01037 13.1274 2.34782L6.3 9.17522V11.7204H8.8452L15.6726 4.89302C16.0101 4.55547 16.1996 4.09771 16.1996 3.62042C16.1996 3.14312 16.0101 2.68537 15.6726 2.34782Z" fill="white"/>
<path fill-rule="evenodd" clip-rule="evenodd" d="M1.8 5.42061C1.8 4.94322 1.98965 4.48538 2.32721 4.14781C2.66478 3.81025 3.12261 3.62061 3.6 3.62061H7.2C7.4387 3.62061 7.66762 3.71543 7.8364 3.88421C8.00518 4.05299 8.1 4.28191 8.1 4.52061C8.1 4.7593 8.00518 4.98822 7.8364 5.157C7.66762 5.32578 7.4387 5.42061 7.2 5.42061H3.6V14.4206H12.6V10.8206C12.6 10.5819 12.6948 10.353 12.8636 10.1842C13.0324 10.0154 13.2613 9.92061 13.5 9.92061C13.7387 9.92061 13.9676 10.0154 14.1364 10.1842C14.3052 10.353 14.4 10.5819 14.4 10.8206V14.4206C14.4 14.898 14.2104 15.3558 13.8728 15.6934C13.5352 16.031 13.0774 16.2206 12.6 16.2206H3.6C3.12261 16.2206 2.66478 16.031 2.32721 15.6934C1.98965 15.3558 1.8 14.898 1.8 14.4206V5.42061Z" fill="white"/>
</svg>
