<svg width="31" height="28" viewBox="0 0 31 28" fill="none" xmlns="http://www.w3.org/2000/svg">
<path fill-rule="evenodd" clip-rule="evenodd" d="M4.97168 9.81053C4.97168 9.44373 5.12848 9.09195 5.4076 8.83257C5.68671 8.5732 6.06527 8.42749 6.45999 8.42749H24.3197C24.7145 8.42749 25.093 8.5732 25.3721 8.83257C25.6512 9.09195 25.808 9.44373 25.808 9.81053C25.808 10.1773 25.6512 10.5291 25.3721 10.7885C25.093 11.0479 24.7145 11.1936 24.3197 11.1936H6.45999C6.06527 11.1936 5.68671 11.0479 5.4076 10.7885C5.12848 10.5291 4.97168 10.1773 4.97168 9.81053ZM4.97168 18.1088C4.97168 17.742 5.12848 17.3902 5.4076 17.1308C5.68671 16.8715 6.06527 16.7258 6.45999 16.7258H24.3197C24.7145 16.7258 25.093 16.8715 25.3721 17.1308C25.6512 17.3902 25.808 17.742 25.808 18.1088C25.808 18.4756 25.6512 18.8274 25.3721 19.0868C25.093 19.3461 24.7145 19.4918 24.3197 19.4918H6.45999C6.06527 19.4918 5.68671 19.3461 5.4076 19.0868C5.12848 18.8274 4.97168 18.4756 4.97168 18.1088Z" fill="#023047"/>
</svg>
